<?xml version="1.0" encoding="UTF-8" standalone="no"?>
<svg width="16px" height="16px" viewBox="0 0 16 16" version="1.1" xmlns="http://www.w3.org/2000/svg" xmlns:xlink="http://www.w3.org/1999/xlink" xmlns:sketch="http://www.bohemiancoding.com/sketch/ns">
    <!-- Generator: Sketch 3.2.2 (9983) - http://www.bohemiancoding.com/sketch -->
    <title>Slice 1</title>
    <desc>Created with Sketch.</desc>
    <defs></defs>
    <g id="Page-1" stroke="none" stroke-width="1" fill="none" fill-rule="evenodd" sketch:type="MSPage">
        <path d="M7.03694811,16 C6.90569561,16 6.79098306,15.9103612 6.75897025,15.7833728 L6.26490596,13.8075833 C5.88021875,13.6885984 5.50086701,13.5274619 5.13432039,13.3284423 L3.37735094,14.3832994 C3.26477258,14.4510621 3.12018141,14.4323874 3.02734427,14.3406143 L1.66199813,12.9752226 C1.569161,12.8823824 1.55155395,12.7377864 1.61931439,12.6252043 L2.67413632,10.8703105 C2.47832466,10.5074866 2.32092837,10.1291893 2.20408163,9.74075433 L0.217687075,9.24347217 C0.0907029478,9.21199186 0,9.09674192 0,8.96601861 L0,7.03718278 C0,6.90485877 0.0907029478,6.7901424 0.217687075,6.75919565 L2.1923436,6.26618201 C2.31345872,5.87721346 2.47458984,5.49838263 2.67253568,5.13342448 L1.61771375,3.37639644 C1.54995331,3.26274719 1.56756036,3.1181512 1.66039749,3.02531097 L3.02360944,1.66205356 C3.11751367,1.5681462 3.26210484,1.54947144 3.37468321,1.61936839 L5.13165266,2.67315837 C5.49339736,2.47947444 5.87168201,2.32100577 6.26010404,2.20415513 L6.75630252,0.217694334 C6.78884887,0.0896388435 6.90302788,0 7.03428038,0 L8.96305189,0 C9.09430439,0 9.21008403,0.0896388435 9.24102975,0.217694334 L9.73509404,2.19455097 C10.1229825,2.31567012 10.5023343,2.47573949 10.8646125,2.67209124 L12.6237162,1.61616701 C12.7341603,1.5516057 12.8798186,1.5681462 12.9737228,1.6599193 L14.3369348,3.02317671 C14.430839,3.11601694 14.448446,3.26061293 14.3806856,3.37426218 L13.3258637,5.13342448 C13.5195411,5.49411412 13.6769374,5.87241138 13.7937842,6.25871211 L15.7823129,6.75706139 C15.9103641,6.7885417 16,6.90379164 16,7.03504852 L16,8.96175009 C16,9.09300697 15.9103641,9.20879048 15.7823129,9.23973722 L13.7937842,9.7380865 C13.6769374,10.1275886 13.5195411,10.5058859 13.3269308,10.8644413 L14.3828198,12.6225364 C14.4505802,12.7361857 14.4329732,12.8807817 14.339069,12.9736219 L12.975857,14.3390136 C12.8819528,14.4318538 12.7373616,14.4473272 12.6258503,14.3827659 L10.8667467,13.3268416 C10.5039349,13.5247941 10.1245832,13.6843299 9.73616113,13.8059826 L9.24423103,15.7817721 C9.21168467,15.9087605 9.09750567,15.9983993 8.96518607,15.9983993 L7.03694811,16 Z M8.00213419,10.2156268 C6.78084567,10.2156268 5.78684807,9.22266315 5.78684807,8.00026678 C5.78684807,6.77787041 6.78084567,5.78490679 8.00213419,5.78490679 C9.22235561,5.78490679 10.2152861,6.77787041 10.2152861,8.00026678 C10.2152861,9.22266315 9.22235561,10.2156268 8.00213419,10.2156268 L8.00213419,10.2156268 Z" id="Settings-2" fill="#808080" sketch:type="MSShapeGroup"></path>
    </g>
</svg>