<?xml version="1.0" encoding="UTF-8" standalone="no"?>
<svg width="15px" height="15px" viewBox="0 0 15 15" version="1.1" xmlns="http://www.w3.org/2000/svg" xmlns:xlink="http://www.w3.org/1999/xlink" xmlns:sketch="http://www.bohemiancoding.com/sketch/ns">
    <!-- Generator: Sketch 3.2.2 (9983) - http://www.bohemiancoding.com/sketch -->
    <title>Slice 1</title>
    <desc>Created with Sketch.</desc>
    <defs></defs>
    <g id="Page-1" stroke="none" stroke-width="1" fill="none" fill-rule="evenodd" sketch:type="MSPage">
        <path d="M6.59713886,15 C6.47408964,15 6.36654662,14.9159636 6.33653461,14.796912 L5.87334934,12.9446093 C5.51270508,12.833061 5.15706283,12.6819955 4.81342537,12.4954147 L3.16626651,13.4843432 C3.06072429,13.5478707 2.92517007,13.5303632 2.83813525,13.4443259 L1.55812325,12.1642712 C1.47108844,12.0772335 1.45458183,11.9416747 1.51810724,11.836129 L2.5070028,10.1909161 C2.32342937,9.85076867 2.17587035,9.49611498 2.06632653,9.13195718 L0.204081633,8.66575516 C0.0850340136,8.63624237 0,8.52819555 0,8.40564245 L0,6.59735886 C0,6.4733051 0.0850340136,6.3657585 0.204081633,6.33674592 L2.05532213,5.87454564 C2.16886755,5.50988762 2.31992797,5.15473372 2.5055022,4.81258545 L1.51660664,3.16537166 C1.45308123,3.05882549 1.46958784,2.92326675 1.55662265,2.83622903 L2.83463385,1.55817521 C2.92266907,1.47013706 3.05822329,1.45262947 3.16376551,1.51815787 L4.81092437,2.50608597 C5.15006002,2.32450729 5.50470188,2.17594291 5.86884754,2.06639544 L6.33403361,0.204088438 C6.36454582,0.0840364158 6.47158864,0 6.59463786,0 L8.40286114,0 C8.52591036,0 8.63445378,0.0840364158 8.66346539,0.204088438 L9.12665066,2.05739154 C9.49029612,2.17094074 9.84593838,2.32100577 10.1855742,2.50508554 L11.8347339,1.51515657 C11.9382753,1.45463034 12.0748299,1.47013706 12.1628651,1.55617434 L13.4408764,2.83422817 C13.5289116,2.92126588 13.5454182,3.05682462 13.4818928,3.16337079 L12.4929972,4.81258545 C12.6745698,5.15073198 12.8221289,5.50538567 12.9316727,5.8675426 L14.7959184,6.33474506 C14.9159664,6.36425785 15,6.47230467 15,6.59535799 L15,8.40164071 C15,8.52469403 14.9159664,8.63324107 14.7959184,8.66225364 L12.9316727,9.1294561 C12.8221289,9.49461433 12.6745698,9.84926802 12.4939976,10.1854137 L13.4838936,11.8336279 C13.547419,11.9401741 13.5309124,12.0757328 13.4428772,12.1627705 L12.1648659,13.4428252 C12.0768307,13.5298629 11.9412765,13.5443692 11.8367347,13.483843 L10.187575,12.493914 C9.84743898,12.6794944 9.49179672,12.8290593 9.12765106,12.9431087 L8.66646659,14.7954113 C8.63595438,14.9144629 8.52891156,14.9984993 8.40486194,14.9984993 L6.59713886,15 Z M7.5020008,9.5771501 C6.35704282,9.5771501 5.42517007,8.64624671 5.42517007,7.50025011 C5.42517007,6.35425351 6.35704282,5.42335012 7.5020008,5.42335012 C8.64595838,5.42335012 9.57683073,6.35425351 9.57683073,7.50025011 C9.57683073,8.64624671 8.64595838,9.5771501 7.5020008,9.5771501 L7.5020008,9.5771501 Z" id="Settings-2" fill="#808080" sketch:type="MSShapeGroup"></path>
    </g>
</svg>