<svg height="14" width="14" fill="#444" xmlns="http://www.w3.org/2000/svg">
<path d="M6.999,4.469c-1.397,0-2.53,1.133-2.53,2.531c0,1.396,1.133,2.532,2.53,2.532c1.397,0,2.522-1.136,2.522-2.532
	C9.521,5.602,8.396,4.469,6.999,4.469z M12.072,8.454l-0.456,1.099l0.813,1.598l0.107,0.211l-1.128,1.128l-1.851-0.874L8.46,12.066
	l-0.558,1.707L7.832,14H6.237l-0.69-1.927L4.448,11.62l-1.6,0.812l-0.211,0.105L1.51,11.41l0.873-1.852L1.93,8.461L0.226,7.904
	L0,7.831V6.238l1.928-0.691L2.381,4.45L1.57,2.849l-0.107-0.21l1.126-1.126l1.853,0.873l1.097-0.454l0.557-1.706L6.168,0h1.593
	l0.69,1.929l1.096,0.454l1.601-0.812l0.213-0.107l1.127,1.126l-0.873,1.85l0.451,1.099l1.709,0.557L14,6.168v1.593L12.072,8.454z"/>
</svg>
