<?xml version="1.0" encoding="UTF-8" standalone="no"?>
<svg width="13px" height="13px" viewBox="0 0 13 13" version="1.1" xmlns="http://www.w3.org/2000/svg" xmlns:xlink="http://www.w3.org/1999/xlink" xmlns:sketch="http://www.bohemiancoding.com/sketch/ns">
    <!-- Generator: Sketch 3.2.2 (9983) - http://www.bohemiancoding.com/sketch -->
    <title>Slice 1</title>
    <desc>Created with Sketch.</desc>
    <defs>
        <path d="M12.8202829,7.09090909 C12.5288048,10.4038411 9.81040934,13 6.5,13 C4.0409416,13 1.9085509,11.5674639 0.854926268,9.47272283 L2.19397991,9.47272283 C3.12701353,10.8877746 4.70742428,11.8181818 6.5,11.8181818 C9.17262724,11.8181818 11.373631,9.74997083 11.660618,7.09090909 L10.5384615,7.09090909 L12.2692308,4.72727273 L14,7.09090909 L12.8202829,7.09090909 Z M0.25848627,5.31818182 C0.801089688,2.29258765 3.38915026,0 6.5,0 C8.72450572,0 10.6816889,1.17228966 11.8147887,2.94661088 L10.6369159,2.94661088 L10.4139378,3.00525763 C9.46208896,1.88785436 8.0615448,1.18181818 6.5,1.18181818 C4.0289375,1.18181818 1.96104307,2.94983146 1.43635561,5.31818182 L2.46153846,5.31818182 L0.730769231,7.68181818 L-1,5.31818182 L0.25848627,5.31818182 L0.25848627,5.31818182 Z" id="path-1"></path>
    </defs>
    <g id="Page-1" stroke="none" stroke-width="1" fill="none" fill-rule="evenodd" sketch:type="MSPage">
        <g id="circle_sync_backup_2_glyph">
            <use fill="#696969" fill-rule="evenodd" sketch:type="MSShapeGroup" transform="translate(6.500000, 6.500000) rotate(-45.000000) translate(-6.500000, -6.500000) " xlink:href="#path-1"></use>
            <use fill="none" xlink:href="#path-1"></use>
        </g>
    </g>
</svg>