<?xml version="1.0" encoding="UTF-8" standalone="no"?>
<svg width="21px" height="21px" viewBox="0 0 21 21" version="1.1" xmlns="http://www.w3.org/2000/svg" xmlns:xlink="http://www.w3.org/1999/xlink" xmlns:sketch="http://www.bohemiancoding.com/sketch/ns">
    <!-- Generator: Sketch 3.2.2 (9983) - http://www.bohemiancoding.com/sketch -->
    <title>Slice 1</title>
    <desc>Created with Sketch.</desc>
    <defs>
        <path d="M16.8202829,11.0909091 C16.5288048,14.4038411 13.8104093,17 10.5,17 C8.0409416,17 5.9085509,15.5674639 4.85492627,13.4727228 L6.19397991,13.4727228 C7.12701353,14.8877746 8.70742428,15.8181818 10.5,15.8181818 C13.1726272,15.8181818 15.373631,13.7499708 15.660618,11.0909091 L14.5384615,11.0909091 L16.2692308,8.72727273 L18,11.0909091 L16.8202829,11.0909091 Z M4.25848627,9.31818182 C4.80108969,6.29258765 7.38915026,4 10.5,4 C12.7245057,4 14.6816889,5.17228966 15.8147887,6.94661088 L14.6369159,6.94661088 L14.4139378,7.00525763 C13.462089,5.88785436 12.0615448,5.18181818 10.5,5.18181818 C8.0289375,5.18181818 5.96104307,6.94983146 5.43635561,9.31818182 L6.46153846,9.31818182 L4.73076923,11.6818182 L3,9.31818182 L4.25848627,9.31818182 L4.25848627,9.31818182 Z" id="path-1"></path>
    </defs>
    <g id="Page-1" stroke="none" stroke-width="1" fill="none" fill-rule="evenodd" sketch:type="MSPage">
        <g id="circle_sync_backup_2_glyph">
            <use fill="#696969" fill-rule="evenodd" sketch:type="MSShapeGroup" transform="translate(10.500000, 10.500000) rotate(-45.000000) translate(-10.500000, -10.500000) " xlink:href="#path-1"></use>
            <use fill="none" xlink:href="#path-1"></use>
        </g>
    </g>
</svg>